HIERARCHY
ROOT joint_Root
{
	OFFSET 0.0 0.0 0.0
	CHANNELS 6 Xposition Yposition Zposition Zrotation Xrotation Yrotation 
	JOINT Hips
	{
		OFFSET -0.726466 93.3139 -2.00062
		CHANNELS 6 Xposition Yposition Zposition Zrotation Xrotation Yrotation 
		JOINT Spine
		{
			OFFSET 15.7357 0.0 0.0
			CHANNELS 6 Xposition Yposition Zposition Zrotation Xrotation Yrotation 
			JOINT Chest
			{
				OFFSET 8.98455 -0.406207 0.0
				CHANNELS 6 Xposition Yposition Zposition Zrotation Xrotation Yrotation 
				JOINT Neck
				{
					OFFSET 16.3773 0.0 0.0
					CHANNELS 6 Xposition Yposition Zposition Zrotation Xrotation Yrotation 
					JOINT Head
					{
						OFFSET 6.45672 0.0 0.0
						CHANNELS 6 Xposition Yposition Zposition Zrotation Xrotation Yrotation 
						End Site
						{
							OFFSET 0.0 0.0 0.0
						}
					}
				}
				JOINT Shoulder_L
				{
					OFFSET 12.9942 -0.242716 4.98039
					CHANNELS 6 Xposition Yposition Zposition Zrotation Xrotation Yrotation 
					JOINT UpperArm_L
					{
						OFFSET 5.34809 0.0 0.0
						CHANNELS 6 Xposition Yposition Zposition Zrotation Xrotation Yrotation 
						JOINT LowerArm_L
						{
							OFFSET 24.3286 1.87007e-05 0.0
							CHANNELS 6 Xposition Yposition Zposition Zrotation Xrotation Yrotation 
							JOINT Hand_L
							{
								OFFSET 22.2916 0.0 0.0
								CHANNELS 6 Xposition Yposition Zposition Zrotation Xrotation Yrotation 
								End Site
								{
									OFFSET 0.0 0.0 0.0
								}
							}
						}
					}
				}
				JOINT Shoulder_R
				{
					OFFSET 12.9945 -0.242716 -4.98039
					CHANNELS 6 Xposition Yposition Zposition Zrotation Xrotation Yrotation 
					JOINT UpperArm_R
					{
						OFFSET -5.34813 0.0 0.0
						CHANNELS 6 Xposition Yposition Zposition Zrotation Xrotation Yrotation 
						JOINT LowerArm_R
						{
							OFFSET -24.3289 0.000322201 0.0
							CHANNELS 6 Xposition Yposition Zposition Zrotation Xrotation Yrotation 
							JOINT Hand_R
							{
								OFFSET -22.2915 -0.000108084 0.0
								CHANNELS 6 Xposition Yposition Zposition Zrotation Xrotation Yrotation 
								End Site
								{
									OFFSET 0.0 0.0 0.0
								}
							}
						}
					}
				}
			}
		}
		JOINT UpperLeg_L
		{
			OFFSET -2.19248 -6.46944 0.0
			CHANNELS 6 Xposition Yposition Zposition Zrotation Xrotation Yrotation 
			JOINT LowerLeg_L
			{
				OFFSET 39.0811 0.0 -1.23785e-05
				CHANNELS 6 Xposition Yposition Zposition Zrotation Xrotation Yrotation 
				JOINT Foot_L
				{
					OFFSET 40.9854 0.0 -1.26872e-05
					CHANNELS 6 Xposition Yposition Zposition Zrotation Xrotation Yrotation 
					JOINT Toes_L
					{
						OFFSET 11.7543 0.0 0.0
						CHANNELS 6 Xposition Yposition Zposition Zrotation Xrotation Yrotation 
						End Site
						{
							OFFSET 0.0 0.0 0.0
						}
					}
				}
			}
		}
		JOINT UpperLeg_R
		{
			OFFSET -2.19251 6.46944 0.0
			CHANNELS 6 Xposition Yposition Zposition Zrotation Xrotation Yrotation 
			JOINT LowerLeg_R
			{
				OFFSET -39.0811 -0.00228153 -0.0401928
				CHANNELS 6 Xposition Yposition Zposition Zrotation Xrotation Yrotation 
				JOINT Foot_R
				{
					OFFSET -40.9854 0.0 0.0
					CHANNELS 6 Xposition Yposition Zposition Zrotation Xrotation Yrotation 
					JOINT Toes_R
					{
						OFFSET -11.7543 0.0 0.0
						CHANNELS 6 Xposition Yposition Zposition Zrotation Xrotation Yrotation 
						End Site
						{
							OFFSET 0.0 0.0 0.0
						}
					}
				}
			}
		}
	}
}
MOTION
Frames:	4
Frame Time:	0.0333333
0.000000 0.000000 0.000000 0.000000 0.000000 -0.000000 -1.707820 92.230500 -1.997320 87.517800 0.636202 3.196230 15.735700 0.000005 -0.000001 79.572000 88.228700 -79.300000 8.984550 -0.406207 -0.000000 -4.280530 -0.669290 0.519233 16.377300 -0.000001 -0.000001 -1.728740 -1.477080 -0.282080 6.456720 -0.000001 -0.000000 -5.950390 -2.024570 6.038220 12.994200 -0.242716 4.980390 -83.967900 -12.493200 -63.965200 5.348090 -0.000007 -0.000001 -65.643300 -52.543000 -99.611400 24.328600 0.000019 0.000005 4.335170 3.062860 -54.822500 22.291600 -0.000001 0.000005 19.972600 5.585480 -10.509900 12.994500 -0.242716 -4.980390 92.468900 -5.547970 -65.964100 -5.348130 -0.000001 -0.000004 -55.296900 -55.872600 -104.918000 -24.328900 0.000322 -0.000009 0.656736 0.775398 -40.314100 -22.291500 -0.000108 -0.000004 22.619800 5.550890 -8.748050 -2.192480 -6.469440 -0.000000 -167.755000 -15.620800 -2.648060 39.081100 -0.000007 -0.000012 -0.153169 0.435081 19.394600 40.985400 -0.000006 -0.000013 -7.021360 3.683950 -61.445200 11.754300 -0.000000 0.000003 -0.000133 -0.001315 -16.627700 -2.192510 6.469440 -0.000001 175.374000 20.739800 179.015000 -39.081100 -0.002282 -0.040193 0.029871 -0.077005 19.022100 -40.985400 0.000008 0.000006 -0.535798 1.854710 -63.150100 -11.754300 -0.000006 -0.000006 -0.006676 -0.076856 -19.701600
0.000000 0.000000 0.000000 0.000000 0.000000 -0.000000 -1.685880 92.234700 -2.007870 87.504700 0.633872 3.133790 15.735700 0.000005 -0.000001 79.491500 88.216400 -79.199500 8.984550 -0.406207 -0.000000 -4.257070 -0.680717 0.559024 16.377300 -0.000001 -0.000001 -1.668760 -1.534950 -0.276658 6.456720 -0.000001 -0.000000 -5.928750 -2.067250 6.065720 12.994200 -0.242716 4.980390 -83.969300 -12.480600 -63.947900 5.348090 -0.000007 -0.000001 -65.548000 -52.679800 -99.325200 24.328600 0.000019 0.000005 4.223750 2.983280 -54.827000 22.291600 -0.000001 0.000005 19.801500 5.584210 -10.440300 12.994500 -0.242716 -4.980390 92.446500 -5.480590 -65.898800 -5.348130 -0.000001 -0.000004 -54.926100 -55.902600 -104.584000 -24.328900 0.000322 -0.000009 0.703906 0.828106 -40.412900 -22.291500 -0.000108 -0.000004 22.653800 5.549500 -8.682650 -2.192480 -6.469440 -0.000000 -167.778000 -15.647600 -2.731420 39.081100 -0.000007 -0.000012 -0.153900 0.436811 19.408900 40.985400 -0.000006 -0.000013 -7.001560 3.682650 -61.443600 11.754300 -0.000000 0.000003 -0.000144 -0.001403 -16.630900 -2.192510 6.469440 -0.000001 175.383000 20.775600 178.980000 -39.081100 -0.002282 -0.040193 0.027592 -0.070701 18.945300 -40.985400 0.000008 0.000006 -0.625144 1.894910 -63.090400 -11.754300 -0.000006 -0.000006 -0.006473 -0.075072 -19.628800
0.000000 0.000000 0.000000 0.000000 0.000000 -0.000000 -1.668880 92.239900 -2.003750 87.510500 0.634428 3.066250 15.735700 0.000005 -0.000001 78.917900 88.194600 -78.608900 8.984550 -0.406207 -0.000000 -4.220790 -0.725825 0.591763 16.377300 -0.000001 -0.000001 -1.622900 -1.580850 -0.266799 6.456720 -0.000001 -0.000000 -5.979980 -2.100280 6.060930 12.994200 -0.242716 4.980390 -83.990900 -12.399400 -63.884400 5.348090 -0.000007 -0.000001 -65.425600 -52.814900 -99.107300 24.328600 0.000019 0.000005 4.228220 2.986640 -54.825300 22.291600 -0.000001 0.000005 19.824100 5.584760 -10.470400 12.994500 -0.242716 -4.980390 92.417200 -5.395960 -65.824500 -5.348130 -0.000001 -0.000004 -54.386800 -55.976700 -104.158000 -24.328900 0.000322 -0.000009 0.681629 0.800039 -40.479900 -22.291500 -0.000108 -0.000004 22.669000 5.549600 -8.687030 -2.192480 -6.469440 -0.000000 -167.809000 -15.683700 -2.785590 39.081100 -0.000007 -0.000012 -0.154701 0.439866 19.376900 40.985400 -0.000006 -0.000013 -6.989740 3.697200 -61.425900 11.754300 -0.000000 0.000003 -0.000154 -0.001489 -16.634100 -2.192510 6.469440 -0.000001 175.381000 20.794900 178.948000 -39.081100 -0.002282 -0.040193 0.026101 -0.066604 18.879800 -40.985400 0.000008 0.000006 -0.678454 1.907910 -63.054400 -11.754300 -0.000006 -0.000006 -0.006624 -0.076405 -19.683200
0.000000 0.000000 0.000000 0.000000 0.000000 -0.000000 -1.646510 92.251000 -2.007760 87.513300 0.642954 2.998950 15.735700 0.000005 -0.000001 78.317500 88.176800 -77.992100 8.984550 -0.406207 -0.000000 -4.193160 -0.771730 0.622737 16.377300 -0.000001 -0.000001 -1.561970 -1.615050 -0.239211 6.456720 -0.000001 -0.000000 -6.015340 -2.133550 6.055070 12.994200 -0.242716 4.980390 -84.016100 -12.331800 -63.858300 5.348090 -0.000007 -0.000001 -65.428500 -52.880300 -98.968100 24.328600 0.000019 0.000005 4.143680 2.917580 -54.909100 22.291600 -0.000001 0.000005 19.865800 5.584330 -10.446500 12.994500 -0.242716 -4.980390 92.390000 -5.309190 -65.721400 -5.348130 -0.000001 -0.000004 -53.769000 -56.013700 -103.662000 -24.328900 0.000322 -0.000009 0.683556 0.801243 -40.517300 -22.291500 -0.000108 -0.000004 22.639900 5.547960 -8.610330 -2.192480 -6.469440 -0.000000 -167.839000 -15.677300 -2.808700 39.081100 -0.000007 -0.000012 -0.153469 0.438524 19.288500 40.985400 -0.000006 -0.000013 -6.981560 3.717560 -61.389400 11.754300 -0.000000 0.000003 -0.000143 -0.001391 -16.630500 -2.192510 6.469440 -0.000001 175.397000 20.785200 178.916000 -39.081100 -0.002282 -0.040193 0.026931 -0.069383 18.790700 -40.985400 0.000008 0.000006 -0.643348 1.897830 -63.006400 -11.754300 -0.000006 -0.000006 -0.006341 -0.073903 -19.581100
